<?xml version="1.0" encoding="UTF-8" standalone="no"?>
<svg
   xmlns:dc="http://purl.org/dc/elements/1.1/"
   xmlns:cc="http://creativecommons.org/ns#"
   xmlns:rdf="http://www.w3.org/1999/02/22-rdf-syntax-ns#"
   xmlns:svg="http://www.w3.org/2000/svg"
   xmlns="http://www.w3.org/2000/svg"
   viewBox="0 0 1200 1200"
   height="1200"
   width="1200"
   id="svg2"
   version="1.1">
  <metadata
     id="metadata8">
    <rdf:RDF>
      <cc:Work
         rdf:about="">
        <dc:format>image/svg+xml</dc:format>
        <dc:type
           rdf:resource="http://purl.org/dc/dcmitype/StillImage" />
        <dc:title></dc:title>
      </cc:Work>
    </rdf:RDF>
  </metadata>
  <defs
     id="defs6" />
  <rect
     y="0"
     x="0"
     height="1200"
     width="1200"
     id="rect4536"
     style="opacity:1;vector-effect:none;fill:#000000;fill-opacity:1;stroke:none;stroke-width:15.1751461;stroke-linecap:butt;stroke-linejoin:miter;stroke-miterlimit:4;stroke-dasharray:none;stroke-dashoffset:0;stroke-opacity:1;marker:none" />
  <rect
     y="746.97229"
     x="383.18594"
     height="164.88991"
     width="443.7041"
     id="rect4538"
     style="opacity:1;vector-effect:none;fill:#ffffff;fill-opacity:1;stroke:none;stroke-width:11.33858299;stroke-linecap:butt;stroke-linejoin:miter;stroke-miterlimit:4;stroke-dasharray:none;stroke-dashoffset:0;stroke-opacity:1;marker:none" />
  <g
     transform="translate(0.01368565,283.62441)"
     id="g4520">
    <path
       id="path4532"
       d="M 706.40499,580.75 704.5,578.5 l 2.25,1.90499 c 2.11444,1.79022 2.70524,2.59501 1.90499,2.59501 -0.18976,0 -1.20226,-1.0125 -2.25,-2.25 z m -4.53255,-4.5 c -1.24387,-1.58606 -1.2085,-1.62143 0.37756,-0.37756 0.9625,0.75485 1.75,1.54235 1.75,1.75 0,0.82304 -0.82119,0.29331 -2.12756,-1.37244 z M 174,290.5 c 4.65071,-4.675 8.68084,-8.5 8.95584,-8.5 0.275,0 -3.30513,3.825 -7.95584,8.5 -4.65071,4.675 -8.68084,8.5 -8.95584,8.5 -0.275,0 3.30513,-3.825 7.95584,-8.5 z m -88,6.22497 c 0,-0.15126 3.4875,-3.63876 7.75,-7.75 L 101.5,281.5 94.025028,289.25 C 87.082438,296.44803 86,297.45627 86,296.72497 Z M 1024,289.5 c -4.0975,-4.125 -7.2249,-7.5 -6.9499,-7.5 0.275,0 3.8524,3.375 7.9499,7.5 4.0975,4.125 7.2249,7.5 6.9499,7.5 -0.275,0 -3.8524,-3.375 -7.9499,-7.5 z M 154.47318,288.75 147.5,281.5 l 7.25,6.97318 c 6.7338,6.47669 7.70669,7.52682 6.97318,7.52682 -0.15225,0 -3.41475,-3.2625 -7.25,-7.25 z M 955.46533,244 c 0,-28.875 0.12777,-40.6875 0.28394,-26.25 0.15616,14.4375 0.15616,38.0625 0,52.5 -0.15617,14.4375 -0.28394,2.625 -0.28394,-26.25 z M 233,285.5 c -4.09747,-4.125 -7.22494,-7.5 -6.94994,-7.5 0.275,0 3.85247,3.375 7.94994,7.5 4.09747,4.125 7.22494,7.5 6.94994,7.5 -0.275,0 -3.85247,-3.375 -7.94994,-7.5 z m 726,7.22497 c 0,-0.15126 3.4875,-3.63876 7.75,-7.75 l 7.75,-7.47497 -7.47497,7.75 C 960.08244,292.44803 959,293.45627 959,292.72497 Z M 1082.4792,269.75 1073.5,260.5 l 9.25,8.97915 c 5.0875,4.93853 9.25,9.10103 9.25,9.25 0,0.72605 -1.1812,-0.38796 -9.5208,-8.97915 z M 36.5,268 c 4.927066,-4.95 9.183301,-9 9.458301,-9 0.275,0 -3.531235,4.05 -8.458301,9 -4.927066,4.95 -9.183301,9 -9.458301,9 -0.275,0 3.531235,-4.05 8.458301,-9 z m 1125.9792,-0.25 -8.9792,-9.25 9.25,8.97915 c 8.5912,8.33963 9.7052,9.52085 8.9792,9.52085 -0.149,0 -4.3115,-4.1625 -9.25,-9.25 z m -740.52099,-113 C 426.10217,150.33481 427,149.54091 427,150.29179 c 0,0.16049 -2.1375,2.29799 -4.75,4.75 L 417.5,159.5 Z M 573.8125,100.31689 c 0.72187,-0.28887 1.58438,-0.25335 1.91667,0.0789 0.33229,0.3323 -0.25834,0.56864 -1.3125,0.52522 -1.16495,-0.048 -1.4019,-0.28494 -0.60417,-0.60416 z M 587.75,99.337719 c 0.6875,-0.277412 1.8125,-0.277412 2.5,0 0.6875,0.277413 0.125,0.504386 -1.25,0.504386 -1.375,0 -1.9375,-0.226973 -1.25,-0.504386 z m 46.0625,-0.02083 c 0.72187,-0.288871 1.58438,-0.253344 1.91667,0.07895 0.33229,0.332292 -0.25834,0.568641 -1.3125,0.52522 -1.16495,-0.04798 -1.4019,-0.284941 -0.60417,-0.604167 z"
       style="fill:#ea9ca6" />
    <path
       id="path4530"
       d="M 246.40499,298.75 244.5,296.5 l 2.25,1.90499 c 2.11444,1.79022 2.70524,2.59501 1.90499,2.59501 -0.18976,0 -1.20226,-1.0125 -2.25,-2.25 z M 1099,286.5 c -4.0975,-4.125 -7.2249,-7.5 -6.9499,-7.5 0.275,0 3.8524,3.375 7.9499,7.5 4.0975,4.125 7.2249,7.5 6.9499,7.5 -0.275,0 -3.8524,-3.375 -7.9499,-7.5 z M 20.5,284 c 3.820499,-3.85 7.171361,-7 7.446361,-7 0.275,0 -2.625862,3.15 -6.446361,7 -3.820499,3.85 -7.171361,7 -7.446361,7 -0.275,0 2.625862,-3.15 6.446361,-7 z m 1157.9732,-0.25 -6.9732,-7.25 7.25,6.97318 c 3.9875,3.83525 7.25,7.09775 7.25,7.25 0,0.73351 -1.0501,-0.23938 -7.5268,-6.97318 z M 49.452948,262.75 45.5,258.5 l 4.25,3.95295 c 2.3375,2.17412 4.25,4.08662 4.25,4.25 0,0.75658 -0.87085,-4.9e-4 -4.547052,-3.95295 z M 1146,266.62244 c 0,-0.20765 0.7875,-0.99515 1.75,-1.75 1.5861,-1.24387 1.6214,-1.2085 0.3776,0.37756 -1.3064,1.66575 -2.1276,2.19548 -2.1276,1.37244 z M 1069.5,261 c 0.9955,-1.1 2.035,-2 2.31,-2 0.275,0 -0.3145,0.9 -1.31,2 -0.9955,1.1 -2.035,2 -2.31,2 -0.275,0 0.3145,-0.9 1.31,-2 z m 82,0 c 0.9955,-1.1 2.035,-2 2.31,-2 0.275,0 -0.3145,0.9 -1.31,2 -0.9955,1.1 -2.035,2 -2.31,2 -0.275,0 0.3145,-0.9 1.31,-2 z M 288.75,191.25036 c 21.0375,-0.15077 55.4625,-0.15077 76.5,0 21.0375,0.15076 3.825,0.27412 -38.25,0.27412 -42.075,0 -59.2875,-0.12336 -38.25,-0.27412 z m 565.5,9e-5 c 18.5625,-0.15238 48.9375,-0.15238 67.5,0 18.5625,0.15238 3.375,0.27706 -33.75,0.27706 -37.125,0 -52.3125,-0.12468 -33.75,-0.27706 z M 596.76166,99.292739 c 1.24391,-0.239193 3.04391,-0.230112 4,0.02018 0.95609,0.250292 -0.0617,0.445996 -2.26166,0.434897 -2.2,-0.0111 -2.98225,-0.215885 -1.73834,-0.455077 z m 27.50737,0.01427 c 0.97297,-0.253543 2.32297,-0.236869 3,0.03705 0.67703,0.273923 -0.11903,0.481368 -1.76903,0.460988 -1.65,-0.02038 -2.20394,-0.244498 -1.23097,-0.498042 z M 614.64313,3.231596 C 614.38194,2.8089738 615.93038,2.6312398 618.08412,2.8366315 620.23785,3.0420232 622,3.387805 622,3.6050355 c 0,0.744846 -6.88162,0.3955305 -7.35687,-0.3734395 z"
       style="fill:#f17385" />
    <path
       id="path4528"
       d="m 5,300.37487 c 0,-0.52715 2.1375,-2.96465 4.75,-5.41666 L 14.5,290.5 10,295.48139 c -2.475,2.73977 -4.6125,5.17727 -4.75,5.41667 -0.1375,0.2394 -0.25,0.004 -0.25,-0.52319 z m 1185.0499,-4.8222 -4.4501,-5.05267 4.9018,4.71491 c 2.6961,2.5932 4.6986,4.8669 4.4502,5.05267 -0.2485,0.18576 -2.4544,-1.93595 -4.9019,-4.71491 z m -79.6449,2.19733 -1.905,-2.25 2.25,1.90499 c 2.1144,1.79022 2.7052,2.59501 1.905,2.59501 -0.1898,0 -1.2023,-1.0125 -2.25,-2.25 z M 61.977922,275.25 53.5,266.5 l 8.75,8.47792 C 70.376739,282.85196 71.455533,284 70.727922,284 c -0.149643,0 -4.087143,-3.9375 -8.75,-8.75 z M 1055.5,275 c 4.9271,-4.95 9.1833,-9 9.4583,-9 0.275,0 -3.5312,4.05 -8.4583,9 -4.9271,4.95 -9.1833,9 -9.4583,9 -0.275,0 3.5312,-4.05 8.4583,-9 z m 81.5,0.5 c 4.6507,-4.675 8.6808,-8.5 8.9558,-8.5 0.275,0 -3.3051,3.825 -7.9558,8.5 -4.6507,4.675 -8.6808,8.5 -8.9558,8.5 -0.275,0 3.3051,-3.825 7.9558,-8.5 z M 201.5,264 c 2.14824,-2.2 4.1309,-4 4.4059,-4 0.275,0 -1.25766,1.8 -3.4059,4 -2.14824,2.2 -4.1309,4 -4.4059,4 -0.275,0 1.25766,-1.8 3.4059,-4 z m 795.95295,-0.25 -3.95295,-4.25 4.25,3.95295 c 2.3375,2.17412 4.25,4.08662 4.25,4.25 0,0.75658 -0.8709,-4.9e-4 -4.54705,-3.95295 z m -876.50377,-1.00311 3.44919,-3.75311 3.30081,3.19928 c 1.81545,1.7596 3.30082,3.43984 3.30082,3.73388 0,0.29403 -1.44756,-0.91296 -3.2168,-2.6822 l -3.21681,-3.21681 -3.53319,3.23604 L 117.5,266.5 Z M 800.40499,154.75 798.5,152.5 l 2.25,1.90499 c 2.11444,1.79022 2.70524,2.59501 1.90499,2.59501 -0.18976,0 -1.20226,-1.0125 -2.25,-2.25 z M 551.8125,103.31689 c 0.72187,-0.28887 1.58438,-0.25335 1.91667,0.0789 0.33229,0.3323 -0.25834,0.56864 -1.3125,0.52522 -1.16495,-0.048 -1.4019,-0.28494 -0.60417,-0.60416 z m 111,-1 c 0.72187,-0.28887 1.58438,-0.25335 1.91667,0.0789 0.33229,0.3323 -0.25834,0.56864 -1.3125,0.52522 -1.16495,-0.048 -1.4019,-0.28494 -0.60417,-0.60416 z M 579.25,100.31067 c 0.9625,-0.25152 2.5375,-0.25152 3.5,0 0.9625,0.25153 0.175,0.45733 -1.75,0.45733 -1.925,0 -2.7125,-0.2058 -1.75,-0.45733 z m 61,0 c 0.9625,-0.25152 2.5375,-0.25152 3.5,0 0.9625,0.25153 0.175,0.45733 -1.75,0.45733 -1.925,0 -2.7125,-0.2058 -1.75,-0.45733 z m -31.45157,-1.039078 6.29844,-0.36518 -0.29844,-15.406094 c -0.16413,-8.473352 0.0515,-15.054821 0.47929,-14.625487 0.42775,0.429335 0.65275,7.495635 0.5,15.702889 L 615.5,99.5 l -6.5,0.06839 -6.5,0.06839 6.29843,-0.365179 z M 622.46239,51.5 c 1.9e-4,-26.4 0.12931,-37.05639 0.28692,-23.680867 0.15761,13.375524 0.15745,34.975524 -3.6e-4,48 C 622.59115,88.84361 622.46219,77.9 622.46239,51.5 Z"
       style="fill:#ee596e" />
    <path
       id="path4526"
       d="m 126.83029,629.25003 c 66.73167,-0.14192 175.63167,-0.14192 242,2e-5 66.36834,0.14193 11.76971,0.25805 -121.33029,0.25804 -133.1,-1e-5 -187.401368,-0.11614 -120.66971,-0.25806 z m 720.41971,10e-6 c 63.6625,-0.14212 167.8375,-0.14212 231.5,0 63.6625,0.14212 11.575,0.25841 -115.75,0.25841 -127.325,0 -179.4125,-0.11629 -115.75,-0.25841 z m -354.17105,-5.83337 c 0.048,-1.16495 0.28494,-1.4019 0.60416,-0.60417 0.28887,0.72187 0.25335,1.58438 -0.0789,1.91667 -0.33229,0.33229 -0.56864,-0.25834 -0.52522,-1.3125 z M 515.5,579 c 2.14824,-2.2 4.1309,-4 4.4059,-4 0.275,0 -1.25766,1.8 -3.4059,4 -2.14824,2.2 -4.1309,4 -4.4059,4 -0.275,0 1.25766,-1.8 3.4059,-4 z M 645.8125,100.31689 c 0.72187,-0.28887 1.58438,-0.25335 1.91667,0.0789 0.33229,0.3323 -0.25834,0.56864 -1.3125,0.52522 -1.16495,-0.048 -1.4019,-0.28494 -0.60417,-0.60416 z M 591.75,99.337719 c 0.6875,-0.277412 1.8125,-0.277412 2.5,0 0.6875,0.277413 0.125,0.504386 -1.25,0.504386 -1.375,0 -1.9375,-0.226973 -1.25,-0.504386 z m 37.51903,-0.03071 c 0.97297,-0.253543 2.32297,-0.236869 3,0.03705 0.67703,0.273923 -0.11903,0.481368 -1.76903,0.460988 -1.65,-0.02038 -2.20394,-0.244498 -1.23097,-0.498042 z"
       style="fill:#b97982" />
    <path
       id="path4522"
       d="m 489.65541,628.54439 c -0.73027,-1.90305 0.98073,-12.7023 3.01733,-19.04439 4.04678,-12.6019 10.88031,-22.97128 22.45393,-34.07216 15.99417,-15.34088 34.57416,-24.73366 61.41315,-31.0463 11.13029,-2.61789 13.45201,-2.81529 33.46018,-2.84498 16.93825,-0.0251 23.40187,0.35426 30.46372,1.78806 49.3814,10.0262 84.36438,39.5759 90.51333,76.4555 1.2839,7.70048 0.96327,10.21988 -1.30063,10.21988 -0.99216,0 -1.55108,-1.96489 -1.9657,-6.91053 C 726.38265,607.24822 718.47065,592.16714 704.05542,578 686.41965,560.66776 662.41912,549.39698 633.5,544.86679 c -11.58788,-1.81524 -36.98513,-1.55961 -48.5,0.48818 -19.37495,3.44561 -39.23685,11.09708 -54,20.8026 -9.00373,5.91919 -21.68576,18.88789 -27.22699,27.84243 -5.47394,8.8458 -9.62051,20.5611 -10.46021,29.5532 -0.38892,4.1649 -1.04389,6.4468 -1.85042,6.4468 -0.68662,0 -1.49976,-0.65503 -1.80697,-1.45561 z"
       style="fill:#9b0405" />
    <path
       id="path4524"
       d="m 731.72274,628.28012 c 0.25747,-0.67094 -0.0781,-4.49594 -0.74569,-8.5 -6.14895,-36.8796 -41.13193,-66.4293 -90.51333,-76.4555 -7.06185,-1.4338 -13.52547,-1.81319 -30.46372,-1.78806 -20.00817,0.0297 -22.32989,0.22709 -33.46018,2.84498 -19.43811,4.57193 -34.55145,10.84227 -48.03982,19.93115 -7.43281,5.00845 -19.44139,16.43374 -24.70456,23.50457 -7.55281,10.14685 -13.40371,25.34023 -14.02819,36.4278 L 489.5,628.99012 247.75,628.99506 6,629 V 464.24062 299.48125 l 19.997181,-19.97843 19.99718,-19.97843 12.25282,12.09152 C 64.986231,278.26624 73.875,286.906 78,290.81536 l 7.5,7.10793 16,-15.73375 c 8.8,-8.65357 17.63886,-17.22744 19.64191,-19.05305 l 3.64191,-3.31929 20.40823,20.02559 20.40822,20.02559 15.87832,-15.68419 c 8.73308,-8.62631 18.06139,-17.67284 20.7296,-20.10341 l 4.85127,-4.41922 20.4834,20.41922 c 11.26588,11.23057 21.1525,20.56472 21.97027,20.74254 1.30161,0.28304 1.48687,-6.4756 1.48687,-54.24375 v -54.56708 l 76.16237,-0.25624 76.16237,-0.25625 1.24652,-6.11125 c 3.01242,-14.76879 14.53945,-29.68812 32.90365,-42.58688 35.0322,-24.60614 93.78598,-40.5518 157.02509,-42.6163 L 615.5,99.5 V 84.084715 68.66943 L 605,65.805969 c -5.775,-1.574904 -14.775,-4.017474 -20,-5.427934 -5.225,-1.41046 -11.525,-3.154206 -14,-3.874992 -2.475,-0.720785 -10.8,-2.976324 -18.5,-5.01231 C 544.8,49.454748 536.475,47.203379 534,46.48769 531.525,45.772001 525,43.991444 519.5,42.530896 514,41.070348 508.68427,39.557977 507.68726,39.170071 505.95138,38.494691 516.72169,34.804573 591,10.625506 608.7808,4.8375017 614.38938,3.3964189 617.74037,3.7547712 l 4.24037,0.4534625 0.25963,47.6458833 L 622.5,99.5 640,100.65474 c 70.57867,4.65716 127.42118,23.51446 158.57166,52.60558 11.54054,10.77758 17.72303,20.76049 20.47623,33.06308 L 820.31826,192 h 67.33203 67.33203 l 0.25884,52.49046 0.25884,52.49046 18.5,-18.47818 c 10.175,-10.163 18.7739,-18.48371 19.10867,-18.49046 0.33478,-0.007 9.20063,8.33498 19.70193,18.53719 10.5013,10.20221 19.4524,18.51668 19.8913,18.47659 0.439,-0.0401 9.4981,-8.45827 20.1314,-18.70707 l 19.3334,-18.63418 20.1666,20.1209 20.1667,20.12089 8.5,-8.11967 c 4.675,-4.46582 14.0138,-13.55632 20.7528,-20.20111 l 12.2528,-12.08143 19.9972,19.97843 19.9972,19.97843 v 164.75514 164.75514 l -231.3727,0.25424 c -181.72619,0.19968 -231.27224,-0.008 -230.90456,-0.96565 z"
       style="fill:#e92744" />
  </g>
</svg>
