<?xml version="1.0" encoding="UTF-8" standalone="no"?>
<svg
   xmlns:dc="http://purl.org/dc/elements/1.1/"
   xmlns:cc="http://creativecommons.org/ns#"
   xmlns:rdf="http://www.w3.org/1999/02/22-rdf-syntax-ns#"
   xmlns:svg="http://www.w3.org/2000/svg"
   xmlns="http://www.w3.org/2000/svg"
   viewBox="0 0 200 200"
   height="200"
   width="200"
   id="svg2"
   version="1.1">
  <metadata
     id="metadata8">
    <rdf:RDF>
      <cc:Work
         rdf:about="">
        <dc:format>image/svg+xml</dc:format>
        <dc:type
           rdf:resource="http://purl.org/dc/dcmitype/StillImage" />
        <dc:title></dc:title>
      </cc:Work>
    </rdf:RDF>
  </metadata>
  <defs
     id="defs6" />
  <g
     transform="translate(5.9924301,2.3969722)"
     id="g817">
    <path
       id="path819"
       d="m 77.757604,188.04231 c -4.27631,-6.66405 -9.554626,-18.42089 -11.995256,-26.71805 -6.358406,-21.61602 -9.581594,-50.92488 -8.406125,-76.437961 l 0.557458,-12.09939 4.224404,-1.868655 c 4.258467,-1.883723 12.479595,-8.593488 12.479595,-10.185361 0,-2.160417 -11.925765,1.416872 -15.644002,4.692622 -1.570799,1.383867 -9.968646,7.742137 -18.661883,14.12949 -19.014207,13.970683 -20.693036,15.762976 -20.697152,22.095985 -0.01018,15.66854 5.734591,44.63665 12.329818,62.17327 4.296573,11.42453 2.042424,9.28646 -4.744304,-4.5 -6.213493,-12.622 -12.081644,-28.58232 -13.971509,-38 -3.7782103,-18.8278 -5.0575473,-39.267672 -2.164818,-34.587137 0.369536,0.597922 1.813826,1.087132 3.209532,1.087132 4.319323,0 29.621652,-17.532853 40.711026,-28.210069 l 5.133292,-4.942502 5.511585,0.598968 c 3.031372,0.329433 6.914451,0.318396 8.629064,-0.02453 3.001021,-0.600204 3.161154,-0.894233 4.286607,-7.870875 1.282824,-7.952176 5.245679,-17.252552 9.497457,-22.289464 L 90.776061,21.847315 88.161038,16.5024 C 86.722776,13.5627 85.28533,9.5510716 84.966714,7.587673 84.484834,4.618196 84.750935,3.8233062 86.549039,2.8609903 c 1.840736,-0.985132 3.153297,-0.6022932 8.84186,2.5789326 5.990081,3.3498407 11.981331,5.4077461 16.226791,5.5736601 0.825,0.03224 4.68531,-0.434595 8.57846,-1.0374143 11.28192,-1.7469021 17.47105,-0.2809561 34.92154,8.2714443 8.25,4.043285 15.675,7.591574 16.5,7.885087 0.825,0.293513 0.0632,0.569187 -1.69284,0.612608 -1.75607,0.04342 -7.60607,-1.482497 -13,-3.390929 -14.50764,-5.132955 -30.14916,-8.422409 -20.16525,-4.240805 5.45616,2.285223 25.22253,15.710681 23.13093,15.710681 -1.0549,0 -5.93534,-1.953272 -10.84542,-4.340603 -10.0402,-4.881648 -16.78765,-7.212073 -23.48855,-8.112441 -4.42296,-0.594291 -4.63503,-0.499401 -7,3.132082 -1.34138,2.059717 -4.2142,4.945994 -6.38404,6.413949 -2.16984,1.467955 -4.27572,3.51006 -4.67972,4.538011 -1.48567,3.780213 -0.89124,10.567996 1.26081,14.397056 2.47749,4.408101 5.78769,5.448929 13.90492,4.372141 5.0379,-0.668301 5.17354,-0.615447 9.78394,3.812339 11.82024,11.352047 36.71596,28.787466 41.1051,28.787466 1.46857,0 3.26712,-0.5625 3.99678,-1.25 1.09936,-1.035839 1.21545,0.425894 0.67758,8.531742 -1.00123,15.088983 -4.20552,31.728983 -8.17731,42.465153 -4.16702,11.26386 -12.40519,28.83307 -14.88899,31.75311 l -1.70121,2 0.68847,-2 c 0.37867,-1.1 2.01256,-5.825 3.63087,-10.5 4.73465,-13.67748 7.60055,-26.92704 9.46475,-43.75711 2.0934,-18.899381 1.97464,-19.308767 -7.74656,-26.703095 C 140.12148,73.63011 127.12156,64.146261 124.2919,62.684516 c -4.22574,-2.182941 -10.69056,-3.124504 -10.62444,-1.54739 0.0739,1.76396 9.26315,8.945142 13.1087,10.24419 l 3.34153,1.128788 -0.0859,27.407071 c -0.0845,26.959235 -0.13862,27.652195 -3.31338,42.407085 -3.8749,18.00888 -7.97699,30.72481 -12.7425,39.5 -3.58765,6.60627 -7.53812,11.69274 -5.82498,7.5 10.12962,-24.79117 12.9514,-44.76896 12.14717,-86 l -0.50715,-26.000005 -3.70224,-4.302699 c -3.99195,-4.639378 -8.18534,-7.816321 -9.10424,-6.897427 -0.31393,0.313935 0.15011,1.600019 1.03121,2.857965 3.37775,4.822412 1.02753,20.989057 -5.53496,38.073846 -3.4752,9.04731 -6.06072,13.67532 -6.65087,11.90487 -0.50607,-1.51822 -2.940132,-1.45269 -3.455371,0.093 -1.594812,4.78444 -11.708358,-23.014637 -13.843611,-38.051887 -0.940891,-6.626109 -0.845101,-7.695755 1.007475,-11.25 3.037074,-5.826753 0.458575,-5.055777 -6.09465,1.822312 l -5.478417,5.75 0.136812,35.000005 c 0.112105,28.67934 0.448368,36.58229 1.862021,43.76176 2.232656,11.3389 5.93521,24.05689 9.061861,31.12681 1.364903,3.08629 2.328316,5.61143 2.140917,5.61143 -0.187399,0 -1.721581,-2.15188 -3.409293,-4.78195 z"
       style="fill:#000000;fill-opacity:1" />
  </g>
</svg>
