<?xml version="1.0" encoding="utf-8"?>
<!-- Generator: Adobe Illustrator 19.0.0, SVG Export Plug-In . SVG Version: 6.00 Build 0)  -->
<svg version="1.1" id="图层_1" xmlns="http://www.w3.org/2000/svg" xmlns:xlink="http://www.w3.org/1999/xlink" x="0px" y="0px"
	 viewBox="71 -75 211.6 300" style="enable-background:new 71 -75 211.6 300;" xml:space="preserve">
<style type="text/css">
	.st0{fill:url(#XMLID_2_);}
	.st1{fill:url(#XMLID_3_);}
	.st2{fill:url(#XMLID_4_);}
</style>
<g id="XMLID_733_">
	<linearGradient id="XMLID_2_" gradientUnits="userSpaceOnUse" x1="176.7906" y1="203" x2="176.7906" y2="-53">
		<stop  offset="0" style="stop-color:#B8DEE2"/>
		<stop  offset="1" style="stop-color:#FFFFFF"/>
	</linearGradient>
	<path id="XMLID_740_" class="st0" d="M269.5,94.7c26.8-44.2,7.9-77.7-16.5-93c-8-5-18.1-7.5-30-7.5c-1.5,0-3.1,0-4.7,0.1
		c0-0.1-0.1-0.2-0.1-0.3c8-1.6,13.3-9.2,12-17.3c-0.6-3.9-2.7-7.1-5.5-9.4c0.4-1.6,0.7-3.3,0.6-5c-0.4-8.6-7.5-15.3-16.2-15.3
		l-0.7,0c-1,0-95.9,5.5-130.9,94.7c-13,33.1-6.7,67,16.4,88.6c10.2,9.5,22.7,15.7,36.4,18c2.7,4.5,6.9,9.3,13.3,12.9
		c3.2,1.8,6.8,3.2,10.6,4c2.3,3.4,5.5,7,10.3,9.8c5.1,3,11.3,4.7,17.8,4.9c4,3.7,5.5,9.4,5.5,9.4v0c0,7.9,7.6,13.7,15.6,13.7
		c0.5,0,0.9,0,1.4-0.1c9.4-0.9,25.4-10.1,48.5-48.8c16.9-28.3,18.3-46.7,15.2-58.2C269,95.4,269.3,95.1,269.5,94.7z"/>
	<g id="XMLID_728_">
		<linearGradient id="XMLID_3_" gradientUnits="userSpaceOnUse" x1="165.2846" y1="-41.6906" x2="165.2846" y2="189.6666">
			<stop  offset="0" style="stop-color:#A9D8DD"/>
			<stop  offset="1" style="stop-color:#5B93C3"/>
		</linearGradient>
		<path id="XMLID_900_" class="st1" d="M167.4-10c-32.3,15.4-51.8,37.6-56.5,64.3c-0.4,2.4,1.2,4.7,3.6,5.2c0.3,0,0.5,0.1,0.8,0.1
			c2.1,0,4-1.5,4.4-3.7c10.1-57.7,95.4-72.1,96.3-72.3c2.4-0.4,4.1-2.7,3.7-5.1c-0.4-2.4-2.7-4.1-5.1-3.7
			C213.6-25.1,191.4-21.5,167.4-10z"/>
		<linearGradient id="XMLID_4_" gradientUnits="userSpaceOnUse" x1="176.789" y1="-41.6906" x2="176.789" y2="189.6666">
			<stop  offset="0" style="stop-color:#A9D8DD"/>
			<stop  offset="1" style="stop-color:#5B93C3"/>
		</linearGradient>
		<path id="XMLID_903_" class="st2" d="M247.3,10.8C224.7-3.3,179.7,9.7,157.5,30c-24,21.9-17.7,40-14.7,45.7
			c-6.1-3.1-8.3-9.8-6.4-19.8c6.6-35.3,67.7-54.4,68.4-54.6c2.4-0.7,3.7-3.2,3-5.6c-0.7-2.4-3.2-3.7-5.6-3
			c-2.7,0.8-67,20.9-74.5,61.5c-3.5,18.9,5.5,26.5,11.2,29.4c4.2,2.2,9.2,3.1,14.5,3.1c15,0,32.3-7.9,42.1-18.2
			C209,54,207.9,42.5,206,37c-2.4-7-8.4-12.1-16.2-14.1c9.5-3.8,19.8-6.4,29.1-7.1c14.6,0.4,29.2,4.6,31.8,19.1
			c2.8,15.1-8.7,32.6-17.1,35.2c-2.4,0.7-3.7,3.2-2.9,5.6c0.6,1.9,2.4,3.1,4.3,3.1c0.4,0,0.9-0.1,1.3-0.2c10.9-3.4,22-19,23.6-35
			c2.9,11.7,0.1,25.4-8.7,39.9c-18.5,30.4-38.8,33.7-39.6,33.8c-2.9,0.4-5,3.1-4.6,6c0.3,2.7,2.7,4.7,5.3,4.7c0.2,0,0.5,0,0.7,0
			c0.9-0.1,17.8-2.6,35.6-22.8c0.3,6.5-1.8,18.3-13.5,38c-13.7,22.9-23.3,32.3-28.4,36.1c-1.4-3.7-3.7-8.3-7.5-12.5
			c2-0.6,4-1.3,6.1-2.1c2.8-1.1,4.1-4.2,3-6.9c-1.1-2.8-4.2-4.1-6.9-3c-11.5,4.5-20.3,5.2-25.7,2.1c-1-0.6-1.8-1.3-2.5-2
			c4.2-0.8,8.7-2,13.5-3.9c2.8-1.1,4.1-4.2,3.1-6.9c-1.1-2.8-4.2-4.1-6.9-3.1c-12.2,4.7-22.1,5.3-28.5,1.8c-2.2-1.2-3.8-2.8-4.9-4.3
			c9-0.9,18.3-3.4,27.5-7.8c2.7-1.3,3.8-4.5,2.5-7.1c-1.3-2.7-4.4-3.8-7.1-2.5c-23.8,11.3-47.6,9-63.8-6.2
			C92.1,99.2,87.9,74.2,97.6,49.5c29.9-76,111.2-81,112-81.1c3-0.2,5.2-2.7,5.1-5.6c-0.1-3-2.6-5.2-5.6-5.1
			c-0.9,0-89,5.3-121.4,87.9c-11.4,28.9-6.1,58.3,13.7,76.9c10.1,9.4,22.6,14.8,36.1,15.9c1.6,3.9,4.9,9.7,11.6,13.5
			c3.6,2,7.7,3.2,12.2,3.6c1.4,3.5,4.2,7.6,8.9,10.4c3.9,2.3,8.4,3.4,13.7,3.4c0.6,0,1.2-0.1,1.8-0.1c10.3,6.1,12.4,18.5,12.4,18.6
			c0.4,2.6,2.7,4.6,5.3,4.6c0.2,0,0.3,0,0.5,0c2.5-0.2,16.4-3.5,40.4-43.7c18.7-31.4,16-47.3,12.6-54.1c1.2-1.7,2.3-3.5,3.5-5.4
			C283.1,51.6,268.5,24,247.3,10.8z"/>
	</g>
</g>
</svg>
