<?xml version="1.0"?>
<svg xmlns="http://www.w3.org/2000/svg" viewBox="0 0 64 64">
    <path d="M 14.853516 6 C 13.328516 6 11.957391 6.8479375 11.275391 8.2109375 L 6.5273438 17.708984 C 6.1833437 18.398984 6 19.172359 6 19.943359 L 6 30 C 6 31.201 6.5428125 32.266 7.3828125 33 C 6.5428125 33.734 6 34.799 6 36 L 6 42 C 6 43.201 6.5428125 44.266 7.3828125 45 C 6.5428125 45.734 6 46.799 6 48 L 6 54 C 6 56.206 7.794 58 10 58 L 54 58 C 56.206 58 58 56.206 58 54 L 58 48 C 58 46.799 57.457188 45.734 56.617188 45 C 57.457187 44.266 58 43.201 58 42 L 58 36 C 58 34.799 57.457188 33.734 56.617188 33 C 57.457187 32.266 58 31.201 58 30 L 58 19.943359 C 58 19.172359 57.816656 18.398031 57.472656 17.707031 L 52.724609 8.2109375 C 52.042609 6.8479375 50.671484 6 49.146484 6 L 14.853516 6 z M 14.853516 8 L 49.144531 8 C 49.907531 8 50.592594 8.4244687 50.933594 9.1054688 L 55.683594 18.601562 C 55.891594 19.017563 56 19.480359 56 19.943359 L 56 20 L 8 20 L 8 19.943359 C 8 19.480359 8.1094063 19.015563 8.3164062 18.601562 L 13.064453 9.1054688 C 13.405453 8.4244687 14.091516 8 14.853516 8 z M 15 10 C 14.447 10 14 10.447 14 11 C 14 11.553 14.447 12 15 12 L 41 12 C 41.553 12 42 11.553 42 11 C 42 10.447 41.553 10 41 10 L 15 10 z M 45 10 C 44.447 10 44 10.447 44 11 C 44 11.553 44.447 12 45 12 L 49 12 C 49.553 12 50 11.553 50 11 C 50 10.447 49.553 10 49 10 L 45 10 z M 8 22 L 56 22 L 56 30 C 56 31.103 55.103 32 54 32 L 10 32 C 8.897 32 8 31.103 8 30 L 8 22 z M 49 24 C 47.346 24 46 25.346 46 27 C 46 28.654 47.346 30 49 30 C 50.654 30 52 28.654 52 27 C 52 25.346 50.654 24 49 24 z M 13 25 C 12.447 25 12 25.447 12 26 L 12 28 C 12 28.553 12.447 29 13 29 C 13.553 29 14 28.553 14 28 L 14 26 C 14 25.447 13.553 25 13 25 z M 18 25 C 17.447 25 17 25.447 17 26 L 17 28 C 17 28.553 17.447 29 18 29 C 18.553 29 19 28.553 19 28 L 19 26 C 19 25.447 18.553 25 18 25 z M 23 25 C 22.447 25 22 25.447 22 26 L 22 28 C 22 28.553 22.447 29 23 29 C 23.553 29 24 28.553 24 28 L 24 26 C 24 25.447 23.553 25 23 25 z M 28 25 C 27.447 25 27 25.447 27 26 L 27 28 C 27 28.553 27.447 29 28 29 C 28.553 29 29 28.553 29 28 L 29 26 C 29 25.447 28.553 25 28 25 z M 33 25 C 32.447 25 32 25.447 32 26 L 32 28 C 32 28.553 32.447 29 33 29 C 33.553 29 34 28.553 34 28 L 34 26 C 34 25.447 33.553 25 33 25 z M 49 25.792969 C 49.667 25.792969 50.207031 26.334 50.207031 27 C 50.207031 27.667 49.666 28.207031 49 28.207031 C 48.334 28.207031 47.792969 27.667 47.792969 27 C 47.792969 26.333 48.333 25.792969 49 25.792969 z M 37 26 C 36.447 26 36 26.447 36 27 C 36 27.553 36.447 28 37 28 L 43 28 C 43.553 28 44 27.553 44 27 C 44 26.447 43.553 26 43 26 L 37 26 z M 10 34 L 54 34 C 55.103 34 56 34.897 56 36 L 56 42 C 56 43.103 55.103 44 54 44 L 10 44 C 8.897 44 8 43.103 8 42 L 8 36 C 8 34.897 8.897 34 10 34 z M 49 36 C 47.346 36 46 37.346 46 39 C 46 40.654 47.346 42 49 42 C 50.654 42 52 40.654 52 39 C 52 37.346 50.654 36 49 36 z M 13 37 C 12.447 37 12 37.447 12 38 L 12 40 C 12 40.553 12.447 41 13 41 C 13.553 41 14 40.553 14 40 L 14 38 C 14 37.447 13.553 37 13 37 z M 18 37 C 17.447 37 17 37.447 17 38 L 17 40 C 17 40.553 17.447 41 18 41 C 18.553 41 19 40.553 19 40 L 19 38 C 19 37.447 18.553 37 18 37 z M 23 37 C 22.447 37 22 37.447 22 38 L 22 40 C 22 40.553 22.447 41 23 41 C 23.553 41 24 40.553 24 40 L 24 38 C 24 37.447 23.553 37 23 37 z M 28 37 C 27.447 37 27 37.447 27 38 L 27 40 C 27 40.553 27.447 41 28 41 C 28.553 41 29 40.553 29 40 L 29 38 C 29 37.447 28.553 37 28 37 z M 33 37 C 32.447 37 32 37.447 32 38 L 32 40 C 32 40.553 32.447 41 33 41 C 33.553 41 34 40.553 34 40 L 34 38 C 34 37.447 33.553 37 33 37 z M 49 37.792969 C 49.666 37.792969 50.207031 38.334 50.207031 39 C 50.207031 39.667 49.667 40.207031 49 40.207031 C 48.333 40.207031 47.792969 39.666 47.792969 39 C 47.792969 38.333 48.334 37.792969 49 37.792969 z M 37 38 C 36.447 38 36 38.447 36 39 C 36 39.553 36.447 40 37 40 L 43 40 C 43.553 40 44 39.553 44 39 C 44 38.447 43.553 38 43 38 L 37 38 z M 10 46 L 54 46 C 55.103 46 56 46.897 56 48 L 56 54 C 56 55.103 55.103 56 54 56 L 10 56 C 8.897 56 8 55.103 8 54 L 8 48 C 8 46.897 8.897 46 10 46 z M 49 48 C 47.346 48 46 49.346 46 51 C 46 52.654 47.346 54 49 54 C 50.654 54 52 52.654 52 51 C 52 49.346 50.654 48 49 48 z M 13 49 C 12.447 49 12 49.447 12 50 L 12 52 C 12 52.553 12.447 53 13 53 C 13.553 53 14 52.553 14 52 L 14 50 C 14 49.447 13.553 49 13 49 z M 18 49 C 17.447 49 17 49.447 17 50 L 17 52 C 17 52.553 17.447 53 18 53 C 18.553 53 19 52.553 19 52 L 19 50 C 19 49.447 18.553 49 18 49 z M 23 49 C 22.447 49 22 49.447 22 50 L 22 52 C 22 52.553 22.447 53 23 53 C 23.553 53 24 52.553 24 52 L 24 50 C 24 49.447 23.553 49 23 49 z M 28 49 C 27.447 49 27 49.447 27 50 L 27 52 C 27 52.553 27.447 53 28 53 C 28.553 53 29 52.553 29 52 L 29 50 C 29 49.447 28.553 49 28 49 z M 33 49 C 32.447 49 32 49.447 32 50 L 32 52 C 32 52.553 32.447 53 33 53 C 33.553 53 34 52.553 34 52 L 34 50 C 34 49.447 33.553 49 33 49 z M 49 49.75 C 49.69 49.75 50.25 50.31 50.25 51 C 50.25 51.69 49.69 52.25 49 52.25 C 48.31 52.25 47.75 51.69 47.75 51 C 47.75 50.31 48.31 49.75 49 49.75 z M 37 50 C 36.447 50 36 50.447 36 51 C 36 51.553 36.447 52 37 52 L 43 52 C 43.553 52 44 51.553 44 51 C 44 50.447 43.553 50 43 50 L 37 50 z"/>
</svg>
