<?xml version="1.0" encoding="iso-8859-1"?>
<!-- Generator: Adobe Illustrator 19.2.1, SVG Export Plug-In . SVG Version: 6.00 Build 0)  -->
<svg version="1.1" id="Layer_1" xmlns="http://www.w3.org/2000/svg" xmlns:xlink="http://www.w3.org/1999/xlink" x="0px" y="0px"
	 viewBox="0 0 40 40" style="enable-background:new 0 0 40 40;" xml:space="preserve">
<g>
	<path style="fill:#DCD5F2;" d="M20,38.5c-7.859,0-14.5-2.748-14.5-6V7h29v25.5C34.5,35.752,27.859,38.5,20,38.5z"/>
	<path style="fill:#8B75A1;" d="M34,7.5v25c0,2.601-5.75,5.5-14,5.5S6,35.101,6,32.5v-25H34 M35,6.5H5c0,1.29,0,24.71,0,26
		c0,3.59,6.716,6.5,15,6.5s15-2.91,15-6.5C35,31.21,35,7.79,35,6.5L35,6.5z"/>
</g>
<g>
	<path style="fill:#DCD5F2;" d="M20,11.5c-8.674,0-14.5-2.585-14.5-5s5.826-5,14.5-5s14.5,2.585,14.5,5S28.674,11.5,20,11.5z"/>
	<path style="fill:#8B75A1;" d="M20,2c8.674,0,14,2.621,14,4.5S28.674,11,20,11S6,8.379,6,6.5S11.326,2,20,2 M20,1
		C11.716,1,5,3.462,5,6.5C5,9.538,11.716,12,20,12s15-2.462,15-5.5C35,3.462,28.284,1,20,1L20,1z"/>
</g>
<path style="fill:none;stroke:#8B75A1;stroke-miterlimit:10;" d="M34.5,15.183c0,2.936-6.492,5.317-14.5,5.317S5.5,18.12,5.5,15.183
	"/>
<path style="fill:none;stroke:#8B75A1;stroke-miterlimit:10;" d="M5.5,23.217c0,3.47,6.492,6.283,14.5,6.283s14.5-2.813,14.5-6.283"
	/>
</svg>
