<?xml version="1.0"?>
<svg xmlns="http://www.w3.org/2000/svg" width="50" height="50" viewBox="0 0 50 50">
    <path style="text-indent:0;text-align:start;line-height:normal;text-transform:none;block-progression:tb;-inkscape-font-specification:Bitstream Vera Sans" d="M 25 0 C 19.3545 0 14.230156 1.0122381 10.4375 2.71875 C 8.5411719 3.5720059 6.9801672 4.6031002 5.84375 5.8125 C 4.7073328 7.0218998 4 8.4567299 4 10 L 4 19.8125 A 1.0001 1.0001 0 0 0 4 20 L 4 29.8125 A 1.0001 1.0001 0 0 0 4 30 L 4 39 C 4 40.54327 4.7073328 41.9781 5.84375 43.1875 C 6.9801672 44.3969 8.5411719 45.427994 10.4375 46.28125 C 14.230156 47.987762 19.3545 49 25 49 C 30.6455 49 35.769844 47.987762 39.5625 46.28125 C 41.458828 45.427994 43.019833 44.3969 44.15625 43.1875 C 45.292667 41.9781 46 40.54327 46 39 L 46 20 L 46 19.90625 L 46 10 C 46 8.4567299 45.292667 7.0218998 44.15625 5.8125 C 43.019833 4.6031002 41.458828 3.5720059 39.5625 2.71875 C 35.769844 1.0122381 30.6455 0 25 0 z M 25 2 C 30.4025 2 35.273406 3.0122619 38.71875 4.5625 C 40.441422 5.3376191 41.800167 6.2431811 42.6875 7.1875 C 43.574833 8.1318189 44 9.0567701 44 10 C 44 10.94323 43.574833 11.868181 42.6875 12.8125 C 41.800167 13.756819 40.441422 14.662381 38.71875 15.4375 C 35.273406 16.987738 30.4025 18 25 18 C 19.5975 18 14.726594 16.987738 11.28125 15.4375 C 9.5585781 14.662381 8.1998328 13.756819 7.3125 12.8125 C 6.4251672 11.868181 6 10.94323 6 10 C 6 9.0567701 6.4251672 8.1318189 7.3125 7.1875 C 8.1998328 6.2431811 9.5585781 5.3376191 11.28125 4.5625 C 14.726594 3.0122619 19.5975 2 25 2 z M 6 14.34375 C 7.1223185 15.486391 8.6228131 16.464729 10.4375 17.28125 C 14.230156 18.987762 19.3545 20 25 20 C 30.6455 20 35.769844 18.987762 39.5625 17.28125 C 41.377187 16.464729 42.877682 15.486391 44 14.34375 L 44 19.84375 A 1.0001 1.0001 0 0 0 44 19.9375 L 44 20 C 44 20.94323 43.574833 21.868181 42.6875 22.8125 C 41.800167 23.756819 40.441422 24.662381 38.71875 25.4375 C 35.273406 26.987738 30.4025 28 25 28 C 19.5975 28 14.726594 26.987738 11.28125 25.4375 C 9.5585781 24.662381 8.1998328 23.756819 7.3125 22.8125 C 6.4251672 21.868181 6 20.94323 6 20 A 1.0001 1.0001 0 0 0 6 19.8125 L 6 14.34375 z M 6 24.34375 C 7.1223185 25.486391 8.6228131 26.464729 10.4375 27.28125 C 14.230156 28.987762 19.3545 30 25 30 C 30.6455 30 35.769844 28.987762 39.5625 27.28125 C 41.377187 26.464729 42.877682 25.486391 44 24.34375 L 44 29.84375 A 1.0001 1.0001 0 0 0 44 29.9375 L 44 30 C 44 30.94323 43.574833 31.868181 42.6875 32.8125 C 41.800167 33.756819 40.441422 34.662381 38.71875 35.4375 C 35.273406 36.987738 30.4025 38 25 38 C 19.5975 38 14.726594 36.987738 11.28125 35.4375 C 9.5585781 34.662381 8.1998328 33.756819 7.3125 32.8125 C 6.4251672 31.868181 6 30.94323 6 30 A 1.0001 1.0001 0 0 0 6 29.8125 L 6 24.34375 z M 6 34.34375 C 7.1223185 35.486391 8.6228131 36.464729 10.4375 37.28125 C 14.230156 38.987762 19.3545 40 25 40 C 30.6455 40 35.769844 38.987762 39.5625 37.28125 C 41.377187 36.464729 42.877682 35.486391 44 34.34375 L 44 39 C 44 39.94323 43.574833 40.868181 42.6875 41.8125 C 41.800167 42.756819 40.441422 43.662381 38.71875 44.4375 C 35.273406 45.987738 30.4025 47 25 47 C 19.5975 47 14.726594 45.987738 11.28125 44.4375 C 9.5585781 43.662381 8.1998328 42.756819 7.3125 41.8125 C 6.4251672 40.868181 6 39.94323 6 39 L 6 34.34375 z" overflow="visible" enable-background="accumulate" font-family="Bitstream Vera Sans"/>
</svg>
