<?xml version="1.0"?>
<svg xmlns="http://www.w3.org/2000/svg" id="Layer_1" data-name="Layer 1" viewBox="0 0 64 64"><title>Icons8 RSL Colored Part 10</title><rect x="5" y="19" width="54" height="36" style="fill:#c5e4fa;"/><polygon points="39.76 55 59 35.76 59 19.08 56.43 19.08 20.51 55 39.76 55" style="fill:#e3f2ff;"/><polygon points="8.9 55 16.6 55 52.52 19.08 44.82 19.08 8.9 55" style="fill:#e3f2ff;"/><polygon points="40.4 19.08 5.07 54.41 5 54.43 5 53.19 39.12 19.08 40.4 19.08" style="fill:#e3f2ff;"/><rect x="13" y="25" width="38" height="4" style="fill:#f9dd8f;"/><rect x="35" y="35" width="16" height="12" style="fill:#72caaf;"/><rect x="5" y="9" width="54" height="10" style="fill:#ced8ed;"/><path d="M55,18H51a1,1,0,0,0,0,2h4a1,1,0,0,0,0-2Z" style="fill:#8d6c9f;"/><path d="M57,8H7a3,3,0,0,0-3,3V53a3,3,0,0,0,3,3H57a3,3,0,0,0,3-3V11A3,3,0,0,0,57,8Zm1,45a1,1,0,0,1-1,1H7a1,1,0,0,1-1-1V20H47a1,1,0,0,0,0-2H6V11a1,1,0,0,1,1-1H57a1,1,0,0,1,1,1Z" style="fill:#8d6c9f;"/><path d="M20,12a1,1,0,0,0-1,1v2a1,1,0,0,0,2,0V13A1,1,0,0,0,20,12Z" style="fill:#8d6c9f;"/><path d="M15,12a1,1,0,0,0-1,1v2a1,1,0,0,0,2,0V13A1,1,0,0,0,15,12Z" style="fill:#8d6c9f;"/><path d="M10,12a1,1,0,0,0-1,1v2a1,1,0,0,0,2,0V13A1,1,0,0,0,10,12Z" style="fill:#8d6c9f;"/><path d="M35,12a1,1,0,0,0-1,1v2a1,1,0,0,0,2,0V13A1,1,0,0,0,35,12Z" style="fill:#8d6c9f;"/><path d="M40,12a1,1,0,0,0-1,1v2a1,1,0,0,0,2,0V13A1,1,0,0,0,40,12Z" style="fill:#8d6c9f;"/><path d="M45,12a1,1,0,0,0-1,1v2a1,1,0,0,0,2,0V13A1,1,0,0,0,45,12Z" style="fill:#8d6c9f;"/><path d="M50,16a1,1,0,0,0,1-1V13a1,1,0,0,0-2,0v2A1,1,0,0,0,50,16Z" style="fill:#8d6c9f;"/><path d="M55,12a1,1,0,0,0-1,1v2a1,1,0,0,0,2,0V13A1,1,0,0,0,55,12Z" style="fill:#8d6c9f;"/><path d="M25,12a1,1,0,0,0-1,1v2a1,1,0,0,0,2,0V13A1,1,0,0,0,25,12Z" style="fill:#8d6c9f;"/><path d="M30,12a1,1,0,0,0-1,1v2a1,1,0,0,0,2,0V13A1,1,0,0,0,30,12Z" style="fill:#8d6c9f;"/><path d="M51,24H13a1,1,0,0,0-1,1v4a1,1,0,0,0,1,1H51a1,1,0,0,0,1-1V25A1,1,0,0,0,51,24Zm-1,4H14V26H50Z" style="fill:#8d6c9f;"/><path d="M51,34H35a1,1,0,0,0-1,1V47a1,1,0,0,0,1,1H51a1,1,0,0,0,1-1V35A1,1,0,0,0,51,34ZM50,46H36V36H50Z" style="fill:#8d6c9f;"/><path d="M27,40a1,1,0,0,0,0-2H25a1,1,0,0,0,0,2Z" style="fill:#8d6c9f;"/><path d="M13,40h8a1,1,0,0,0,0-2H13a1,1,0,0,0,0,2Z" style="fill:#8d6c9f;"/><path d="M19,46H13a1,1,0,0,0,0,2h6a1,1,0,0,0,0-2Z" style="fill:#8d6c9f;"/><path d="M29,34H13a1,1,0,0,0,0,2H29a1,1,0,0,0,0-2Z" style="fill:#8d6c9f;"/><path d="M29,42H13a1,1,0,0,0,0,2H29a1,1,0,0,0,0-2Z" style="fill:#8d6c9f;"/></svg>
