<?xml version="1.0" encoding="iso-8859-1"?>
<!-- Generator: Adobe Illustrator 19.0.0, SVG Export Plug-In . SVG Version: 6.00 Build 0)  -->
<svg version="1.1" id="Layer_1" xmlns="http://www.w3.org/2000/svg" xmlns:xlink="http://www.w3.org/1999/xlink" x="0px" y="0px"
	 viewBox="0 0 358.567 358.567" style="enable-background:new 0 0 358.567 358.567;" xml:space="preserve">
<g>
	<g>
		<g>
			<path d="M326.067,44.551H32.5C14.58,44.551,0,59.13,0,77.051v204.465c0,17.921,14.58,32.5,32.5,32.5h293.567
				c17.92,0,32.5-14.579,32.5-32.5V77.051C358.567,59.13,343.988,44.551,326.067,44.551z M343.567,281.516
				c0,9.649-7.851,17.5-17.5,17.5H32.5c-9.649,0-17.5-7.851-17.5-17.5V96.371h328.567V281.516z M343.567,81.371H15v-4.32
				c0-9.649,7.851-17.5,17.5-17.5h293.567c9.649,0,17.5,7.851,17.5,17.5V81.371z"/>
			<polygon points="206.121,164.209 219.557,212.057 226.642,194.512 245.307,213.176 255.088,203.393 236.424,184.729 
				253.968,177.645 			"/>
			<circle cx="70.027" cy="70.461" r="8.257"/>
			<path d="M52.099,270.705h115.973c4.142,0,7.5-3.357,7.5-7.5v-41.263c0-4.143-3.358-7.5-7.5-7.5H52.099
				c-4.142,0-7.5,3.357-7.5,7.5v41.263C44.599,267.348,47.957,270.705,52.099,270.705z M59.599,229.442h100.973v26.263H59.599
				V229.442z"/>
			<path d="M307.802,214.442h-47.514c-4.142,0-7.5,3.357-7.5,7.5v41.263c0,4.143,3.358,7.5,7.5,7.5h47.514
				c4.142,0,7.5-3.357,7.5-7.5v-41.263C315.302,217.8,311.944,214.442,307.802,214.442z M300.302,255.705h-32.514v-26.263h32.514
				V255.705z"/>
			<path d="M237.937,214.442h-47.515c-4.142,0-7.5,3.357-7.5,7.5v41.263c0,4.143,3.358,7.5,7.5,7.5h47.515
				c4.142,0,7.5-3.357,7.5-7.5v-41.263C245.437,217.8,242.079,214.442,237.937,214.442z M230.437,255.705h-32.515v-26.263h32.515
				V255.705z"/>
			<circle cx="100.437" cy="70.461" r="8.257"/>
			<circle cx="39.617" cy="70.461" r="8.257"/>
			<path d="M52.099,211.072h85.651c4.142,0,7.5-3.357,7.5-7.5v-81.034c0-4.143-3.358-7.5-7.5-7.5H52.099c-4.142,0-7.5,3.357-7.5,7.5
				v81.034C44.599,207.715,47.957,211.072,52.099,211.072z M59.599,130.038h70.651v66.034H59.599V130.038z"/>
			<path d="M168.072,163.797h139.73c4.142,0,7.5-3.357,7.5-7.5v-33.759c0-4.143-3.358-7.5-7.5-7.5h-139.73
				c-4.142,0-7.5,3.357-7.5,7.5v33.759C160.572,160.439,163.93,163.797,168.072,163.797z M175.572,130.038h124.73v18.759h-124.73
				V130.038z"/>
		</g>
	</g>
</g>
<g>
</g>
<g>
</g>
<g>
</g>
<g>
</g>
<g>
</g>
<g>
</g>
<g>
</g>
<g>
</g>
<g>
</g>
<g>
</g>
<g>
</g>
<g>
</g>
<g>
</g>
<g>
</g>
<g>
</g>
</svg>
