<?xml version="1.0" encoding="UTF-8"?>
<svg width="102px" height="37px" viewBox="0 0 102 37" version="1.1" xmlns="http://www.w3.org/2000/svg" xmlns:xlink="http://www.w3.org/1999/xlink">
    <!-- Generator: sketchtool 55.2 (78181) - https://sketchapp.com -->
    <title>A198A6E5-7A01-497D-980C-AADD62A24B79</title>
    <desc>Created with sketchtool.</desc>
    <g id="Design" stroke="none" stroke-width="1" fill="none" fill-rule="evenodd">
        <g id="JSX_Homepage_Desktop_v2" transform="translate(-255.000000, -28.000000)">
            <g id="Navigation">
                <g id="jsx-logo-md" transform="translate(255.000000, 28.000000)">
                    <polygon id="Fill-6" fill="#E53835" points="89.9399486 21.6930921 87.5 19 85.0600514 21.6930921 73 35 77.8798972 35 87.5 24.3838863 97.122431 35 102 35"></polygon>
                    <polygon id="Fill-8" fill="#E53835" points="97.0535259 1 87.4998819 11.5392571 77.9490714 1 73 1 85.0255824 14.2684632 87.4998819 17 89.9746538 14.2684632 102 1"></polygon>
                    <path d="M40.6801862,27.8464187 C43.1802257,30.4199763 46.6378127,32.1147063 50.2341198,32.1147063 C54.7948394,32.1147063 57.4991715,29.843948 57.4991715,26.4698646 C57.4991715,22.9230911 54.9820879,21.7920883 51.701807,20.3601787 L46.70954,18.1599159 C43.4716326,16.7786306 39.6724532,14.325483 39.6724532,9.21740045 C39.6724532,3.9122618 44.2982719,0 50.6128778,0 C54.7321076,0 58.4048765,1.78273098 60.8459718,4.30258904 L58.3937505,7.04197661 C56.2866725,5.09199632 53.7705358,3.88505717 50.6128778,3.88505717 C46.7154581,3.88505717 44.1339856,5.84946774 44.1339856,8.95599947 C44.1339856,12.3019319 47.1642863,13.5528716 49.8866093,14.7027993 L54.8395802,16.8451045 C58.8610432,18.5717703 62,20.9667236 62,26.1303982 C62,31.6167433 57.462716,36 50.1562377,36 C45.2785449,36 41.0374024,34.0112236 38,30.8446051 L40.6801862,27.8464187 Z" id="Fill-1" fill="#88898C"></path>
                    <path d="M17.7198083,1.147627 C17.7198083,1.147627 17.68085,18.109927 17.68085,22.322067 C17.68085,27.702862 15.2585583,29.785667 15.1806417,29.867682 C12.4155167,32.751837 7.69055833,32.972502 4.73774583,30.291857 C3.96935,29.594142 3.2770375,28.843082 2.6225375,28.151712 L-4.58333334e-05,31.154072 C0.534370833,31.726297 0.886370833,32.127442 1.51520417,32.772047 C3.7362875,35.049902 6.6375375,36.218792 9.520225,36.249577 C12.4026833,36.280127 15.9543083,35.172572 18.1009125,32.957462 C18.1190167,32.938662 18.1371208,32.920097 18.155225,32.901767 C18.2560583,32.798367 21.9548083,29.270782 21.9731417,23.074067 L21.9731417,1.147627 L17.7198083,1.147627 Z" id="Fill-3" fill="#88898C"></path>
                </g>
            </g>
        </g>
    </g>
</svg>