<?xml version="1.0"?>
<svg xmlns="http://www.w3.org/2000/svg" id="Layer_1" data-name="Layer 1" viewBox="0 0 64 64"><title>Dusk Part 2</title><polygon points="57 21 7 21 13 7 51 7 57 21" style="fill:#ced8ed;"/><rect x="7" y="21" width="50" height="12" rx="2" ry="2" style="fill:#c2cde7;"/><path d="M11,27H53a4,4,0,0,1,4,4v0a2,2,0,0,1-2,2H9a2,2,0,0,1-2-2v0a4,4,0,0,1,4-4Z" style="fill:#b5c4e0;"/><rect x="7" y="33" width="50" height="12" rx="2" ry="2" style="fill:#c2cde7;"/><path d="M11,39H53a4,4,0,0,1,4,4v0a2,2,0,0,1-2,2H9a2,2,0,0,1-2-2v0a4,4,0,0,1,4-4Z" style="fill:#b5c4e0;"/><rect x="7" y="45" width="50" height="12" rx="2" ry="2" style="fill:#c2cde7;"/><path d="M11,51H53a4,4,0,0,1,4,4v0a2,2,0,0,1-2,2H9a2,2,0,0,1-2-2v0a4,4,0,0,1,4-4Z" style="fill:#b5c4e0;"/><circle cx="49" cy="27" r="2" style="fill:#ed7899;"/><circle cx="49" cy="39" r="2" style="fill:#ed7899;"/><circle cx="49" cy="51" r="2" style="fill:#ed7899;"/><polygon points="52 11 51.04 7 12.96 7 12 11 52 11" style="fill:#dae2ef;"/><path d="M58,30V19.94a5,5,0,0,0-.53-2.24l-4.75-9.5A4,4,0,0,0,49.15,6H14.85a4,4,0,0,0-3.58,2.21l-4.75,9.5A5,5,0,0,0,6,19.94V30a4,4,0,0,0,1.38,3A4,4,0,0,0,6,36v6a4,4,0,0,0,1.38,3A4,4,0,0,0,6,48v6a4,4,0,0,0,4,4H54a4,4,0,0,0,4-4V48a4,4,0,0,0-1.38-3A4,4,0,0,0,58,42V36a4,4,0,0,0-1.38-3A4,4,0,0,0,58,30ZM8.32,18.6l4.75-9.5A2,2,0,0,1,14.85,8H49.15a2,2,0,0,1,1.79,1.11l4.75,9.5A3,3,0,0,1,56,19.94V20H8v-.06A3,3,0,0,1,8.32,18.6ZM56,48v6a2,2,0,0,1-2,2H10a2,2,0,0,1-2-2V48a2,2,0,0,1,2-2H54A2,2,0,0,1,56,48Zm0-12v6a2,2,0,0,1-2,2H10a2,2,0,0,1-2-2V36a2,2,0,0,1,2-2H54A2,2,0,0,1,56,36ZM10,32a2,2,0,0,1-2-2V22H56v8a2,2,0,0,1-2,2Z" style="fill:#8d6c9f;"/><path d="M33,53a1,1,0,0,0,1-1V50a1,1,0,0,0-2,0v2A1,1,0,0,0,33,53Z" style="fill:#8d6c9f;"/><path d="M28,53a1,1,0,0,0,1-1V50a1,1,0,0,0-2,0v2A1,1,0,0,0,28,53Z" style="fill:#8d6c9f;"/><path d="M23,53a1,1,0,0,0,1-1V50a1,1,0,0,0-2,0v2A1,1,0,0,0,23,53Z" style="fill:#8d6c9f;"/><path d="M18,53a1,1,0,0,0,1-1V50a1,1,0,0,0-2,0v2A1,1,0,0,0,18,53Z" style="fill:#8d6c9f;"/><path d="M13,53a1,1,0,0,0,1-1V50a1,1,0,0,0-2,0v2A1,1,0,0,0,13,53Z" style="fill:#8d6c9f;"/><path d="M49,54a3,3,0,1,0-3-3A3,3,0,0,0,49,54Zm0-4.25A1.25,1.25,0,1,1,47.75,51,1.25,1.25,0,0,1,49,49.75Z" style="fill:#8d6c9f;"/><path d="M37,52h6a1,1,0,0,0,0-2H37a1,1,0,0,0,0,2Z" style="fill:#8d6c9f;"/><path d="M33,41a1,1,0,0,0,1-1V38a1,1,0,0,0-2,0v2A1,1,0,0,0,33,41Z" style="fill:#8d6c9f;"/><path d="M28,41a1,1,0,0,0,1-1V38a1,1,0,0,0-2,0v2A1,1,0,0,0,28,41Z" style="fill:#8d6c9f;"/><path d="M23,41a1,1,0,0,0,1-1V38a1,1,0,0,0-2,0v2A1,1,0,0,0,23,41Z" style="fill:#8d6c9f;"/><path d="M18,41a1,1,0,0,0,1-1V38a1,1,0,0,0-2,0v2A1,1,0,0,0,18,41Z" style="fill:#8d6c9f;"/><path d="M13,41a1,1,0,0,0,1-1V38a1,1,0,0,0-2,0v2A1,1,0,0,0,13,41Z" style="fill:#8d6c9f;"/><path d="M49,42a3,3,0,1,0-3-3A3,3,0,0,0,49,42Zm0-4.21A1.21,1.21,0,1,1,47.79,39,1.21,1.21,0,0,1,49,37.79Z" style="fill:#8d6c9f;"/><path d="M37,40h6a1,1,0,0,0,0-2H37a1,1,0,0,0,0,2Z" style="fill:#8d6c9f;"/><path d="M33,25a1,1,0,0,0-1,1v2a1,1,0,0,0,2,0V26A1,1,0,0,0,33,25Z" style="fill:#8d6c9f;"/><path d="M28,25a1,1,0,0,0-1,1v2a1,1,0,0,0,2,0V26A1,1,0,0,0,28,25Z" style="fill:#8d6c9f;"/><path d="M23,25a1,1,0,0,0-1,1v2a1,1,0,0,0,2,0V26A1,1,0,0,0,23,25Z" style="fill:#8d6c9f;"/><path d="M18,25a1,1,0,0,0-1,1v2a1,1,0,0,0,2,0V26A1,1,0,0,0,18,25Z" style="fill:#8d6c9f;"/><path d="M13,25a1,1,0,0,0-1,1v2a1,1,0,0,0,2,0V26A1,1,0,0,0,13,25Z" style="fill:#8d6c9f;"/><path d="M49,24a3,3,0,1,0,3,3A3,3,0,0,0,49,24Zm0,4.21A1.21,1.21,0,1,1,50.21,27,1.21,1.21,0,0,1,49,28.21Z" style="fill:#8d6c9f;"/><path d="M43,26H37a1,1,0,0,0,0,2h6a1,1,0,0,0,0-2Z" style="fill:#8d6c9f;"/><path d="M15,12H41a1,1,0,0,0,0-2H15a1,1,0,0,0,0,2Z" style="fill:#8d6c9f;"/><path d="M45,12h4a1,1,0,0,0,0-2H45a1,1,0,0,0,0,2Z" style="fill:#8d6c9f;"/></svg>
