<svg xmlns="http://www.w3.org/2000/svg" viewBox="0 0 129.1 37" enable-background="new 0 0 129.1 37"><g fill="#fff"><path d="m53.2 18.1c-.9-.2-1.8-.2-2.7-.1-.8.1-1.6.5-2.5.8v-5.9c-.8.1-1.6.2-2.3.3v17h2.3v-8.2c0-1.5.2-1.8 1.7-2.1.2 0 .4-.1.5-.1 1.5-.3 2.5.4 2.8 1.9.1.4.1.8.1 1.2 0 2.2 0 4.3 0 6.5v.8h2.4c0-3 .1-6 0-9 0-1.6-.8-2.8-2.3-3.1"/><path d="m35.6 16.1c.9-.2 1.9-.2 2.8-.1 1.1.1 2.2.4 3.3.6.2-.6.4-1.3.6-2-2.1-.7-4.2-1.1-6.3-.8-3 .4-5.1 2.1-5.9 5-.6 2.4-.6 4.9.2 7.3.8 2.4 2.4 3.9 4.9 4.3 2.4.4 4.8 0 7.2-.8-.2-.7-.4-1.4-.6-1.9-1.5.2-2.9.5-4.3.7-2.4.2-4-.8-4.6-2.9-.6-2.3-.6-4.5.1-6.8.4-1.5 1.3-2.4 2.6-2.6"/><path d="m77.2 17.8c-1.1-.1-2.1.3-2.9 1-.2.2-.4.3-.6.5-.2-.5-.4-.9-.6-1.3-.4 0-.6.1-.9.1-.3 0-.6.1-.7.1v11.9h2.6c0-.3 0-.6 0-.9 0-2.4.1-4.8 0-7.1 0-1.1.5-1.7 1.3-2.2.9-.5 1.6-.2 1.7.9 0 .2 0 .5 0 .7.7.1 1.3.2 2 .3.1-.6.2-1.1.2-1.6.2-1.5-.6-2.3-2.1-2.4"/><path d="m129.1 18.7c0-.2 0-.5 0-.7-.6.1-1.1.2-1.7.2-.5 0-.7.3-.7.8 0 2.6 0 5.3 0 7.9 0 .6-.2.9-.7 1.2-1.8 1.2-3.9.3-4.2-1.9 0-.3-.1-.7-.1-1 0-2.4 0-4.7 0-7.2-.7.1-1.3.1-1.9.2-.4 0-.6.2-.6.7 0 2.6 0 5.2 0 7.8.1 2.3 1.6 3.9 3.9 3.8 1.1 0 2.2-.3 3.3-.5.2 1.6-.6 2.9-2.3 3.1-.7.1-1.3.1-2 0-.7-.1-1.5-.3-2.2-.4-.2.6-.3 1.2-.5 1.7 1.5.7 4.1 1 5.6.6.6-.2 1.3-.4 1.8-.8 1.5-1.1 2-2.7 2-4.4.3-3.8.3-7.4.3-11.1"/><path d="m101.2 18c-.6.1-1.1.2-1.6.2-.6 0-.8.2-.8.9 0 2.6 0 5.2 0 7.8 0 .3 0 .6-.1.7-.6.9-1.6 1-2.6.9-.9 0-1.5-.4-1.8-1.2-.2-.5-.3-1.2-.3-1.7 0-2.1 0-4.3 0-6.4 0-.4 0-.7 0-1.2-.9.1-1.7.2-2.5.3 0 2.7 0 5.4 0 8 .1 2.9 1.9 4.4 4.7 4.1.8-.1 1.7-.4 2.5-.6.2 1.8-.6 3.1-2.4 3.3-1.3.1-2.7-.1-4.2-.2-.1.4-.3.9-.5 1.6 1.9.8 3.8.9 5.7.5.6-.1 1.2-.4 1.7-.7 1.7-1.1 2.1-2.8 2.1-4.6 0-3.7 0-7.3 0-11 .2-.2.2-.5.1-.7"/><path d="m87.5 17.8c-1.2-.1-2.2.3-3 1-.2.2-.4.3-.6.5-.2-.5-.4-.9-.6-1.3-.6.1-1.2.2-1.6.2.1 4.1.1 8 .2 11.9h2.4c0-.3 0-.6 0-.9 0-2.4 0-4.7 0-7.1 0-.9.4-1.5 1.1-2 1.1-.7 1.8-.4 1.9 1 0 .2 0 .3 0 .5.7.1 1.3.2 2 .3.1-.5.2-1 .3-1.5.2-1.5-.6-2.4-2.1-2.6"/></g><path d="m19.2 26.7c-.1-2.8-1.1-5.3-3.3-7.2-1.3-1.2-3.4-1.5-5-.8-.8.3-1.7.7-2.4 1.2-.8.5-1.6 1-2.6 1.1-.6.1-1.1 0-1.7.2-1.2.4-2.5.9-3.3 1.9-1.6 1.9-.9 5.2 0 7.3.6 1.5 1.5 2.9 2.7 3.9 1 .9 2.1 1.5 3.3 1.9 1.3.5 2.8.8 4.2.6 3.3-.3 6.5-2.9 7.6-6 .5-1.2.6-2.7.5-4.1" fill="#d12028"/><path d="m91.8 34.4c.2-.6.3-1.2.5-1.6 1.5.1 2.8.3 4.2.2 1.8-.2 2.6-1.4 2.4-3.3-.8.2-1.7.6-2.5.6-2.9.3-4.7-1.3-4.7-4.1-.1-2.6 0-5.3 0-8 .8-.1 1.6-.2 2.5-.3 0 .5 0 .8 0 1.2 0 2.1 0 4.3 0 6.4 0 .6.1 1.2.3 1.7.3.8 1 1.2 1.8 1.2 1 0 2-.1 2.6-.9.1-.2.1-.5.1-.7 0-2.6 0-5.2 0-7.8 0-.6.2-.8.8-.9.5 0 1-.1 1.6-.2 0 .3.1.5.1.7 0 3.7 0 7.3 0 11 0 1.9-.5 3.5-2.1 4.6-.5.3-1.1.6-1.7.7-2.1.4-4 .3-5.9-.5"/><path d="m121.8 18c0 2.5 0 4.9 0 7.2 0 .3 0 .7.1 1 .3 2.2 2.4 3.1 4.2 1.9.4-.3.7-.7.7-1.2 0-2.6 0-5.3 0-7.9 0-.5.2-.8.7-.8.5 0 1.1-.1 1.7-.2 0 .3 0 .5 0 .7 0 3.7 0 7.4 0 11 0 1.8-.5 3.4-2 4.4-.5.4-1.2.6-1.8.8-1.6.4-4.1.1-5.6-.6.1-.6.3-1.1.5-1.7.8.1 1.5.3 2.2.4.7.1 1.4.1 2 0 1.7-.3 2.5-1.5 2.3-3.1-1.1.2-2.2.5-3.3.5-2.2 0-3.8-1.6-3.9-3.8-.1-2.6 0-5.2 0-7.8 0-.4.2-.6.6-.7.3 0 .9-.1 1.6-.1"/><path d="m116.4 18.3c-.1-2.4-1.5-4.1-3.8-4.4-1.1-.2-2.3-.1-3.5-.1-1 0-2 .2-3 .2v16.1h2.6c0-1 0-1.9 0-2.9 0-1 0-1.9 0-2.9.7 0 1.4 0 2 0 3.7.1 5.9-2.2 5.7-6m-3.2 2.8c-1.1 1.8-2.9 1.2-4.6 1.3 0-2.2 0-4.3 0-6.5 1.6 0 3.3-.5 4.4 1 1 1.2 1 2.8.2 4.2"/><path d="m48 30.2c-.9 0-1.6 0-2.4 0 0-5.7 0-11.3 0-17 .8-.1 1.5-.2 2.3-.3 0 2 0 3.9 0 5.9.9-.3 1.7-.7 2.5-.8.9-.1 1.8-.1 2.7.1 1.5.4 2.3 1.6 2.4 3.1.1 3 0 6 0 9-.7 0-1.5 0-2.4 0 0-.3 0-.6 0-.8 0-2.2 0-4.3 0-6.5 0-.4 0-.8-.1-1.2-.3-1.5-1.4-2.1-2.8-1.9-.2 0-.4.1-.5.1-1.4.4-1.7.7-1.7 2.1 0 2.7 0 5.4 0 8.2"/><path d="m41.8 27.6c.2.6.4 1.2.6 1.9-2.4.8-4.7 1.2-7.2.8-2.5-.4-4.1-1.9-4.9-4.3-.8-2.4-.8-4.8-.2-7.3.8-2.9 2.9-4.7 5.9-5 2.2-.3 4.2.1 6.3.8-.2.7-.4 1.3-.6 2-1.1-.2-2.2-.5-3.3-.6-.9-.1-1.9 0-2.8.1-1.4.3-2.3 1.2-2.7 2.5-.7 2.2-.7 4.5-.1 6.8.5 2 2.2 3.1 4.6 2.9 1.5-.1 2.9-.4 4.4-.6"/><path d="m79.2 21.9c-.8-.1-1.4-.2-2-.3 0-.3 0-.5 0-.7-.1-1.1-.8-1.4-1.7-.9-.8.5-1.4 1.1-1.3 2.2.1 2.4 0 4.7 0 7.1 0 .3 0 .6 0 .9-.8 0-1.6 0-2.6 0 0-3.9 0-7.9 0-11.9.1 0 .4-.1.7-.1.3 0 .6-.1.9-.1.2.4.4.8.6 1.3.2-.2.4-.3.6-.5.8-.7 1.8-1.1 2.9-1 1.5.1 2.3.9 2.2 2.4-.1.5-.2 1-.3 1.6"/><path d="m81.7 18.3c.4-.1 1-.1 1.6-.2.2.4.4.9.6 1.3.2-.2.4-.4.6-.5.9-.8 1.9-1.1 3-1 1.5.1 2.3 1.1 2.1 2.5 0 .5-.2 1-.3 1.5-.7-.1-1.3-.2-2-.3 0-.2 0-.4 0-.5-.1-1.3-.8-1.7-1.9-1-.7.5-1.1 1.1-1.1 2 .1 2.4 0 4.7 0 7.1 0 .3 0 .6 0 .9-.8 0-1.6 0-2.4 0-.1-3.9-.2-7.8-.2-11.8"/><path d="m67.6 27.6c-3.7 1.9-6.4.6-6.7-2.1.3 0 .5 0 .7 0 1.7-.1 3.4-.2 5-1.2 1.3-.8 2-2 1.8-3.6-.2-1.4-1.1-2.2-2.5-2.7-3.1-.9-6.4.9-7 4-.3 1.3-.3 2.7-.1 4.1.2 1.8 1.2 3.1 2.9 3.8 2.2.8 4.3.6 6.4-.6.2-.1.3-.4.3-.6-.3-.3-.6-.7-.8-1.1m-2.9-7.8c.8.2 1.3.6 1.4 1.4.1.8-.3 1.4-.9 1.7-1.3.8-2.8.8-4.3.8-.3-2.2 1.8-4.4 3.8-3.9"/><path d="m6.3 20.5c-.1-.6-.4-1.1-.6-1.7-.7-1.8-1.5-3.6-2.1-5.4-1-2.8-1.2-5.7-.2-8.6.7-2.1 2.1-3.6 4-4.7.2-.1.4-.2.6 0 .2.2.4.1.7.1.6-.1 1.3-.1 1.8.3.6.5.5 1.2-.1 1.6-.6.3-1.2.3-1.7-.1-.2-.1-.3-.2-.5-.3-.6-.4-.6-.4-1.2.1-.4.3-.8.5-1.1.9-1.4 1.3-2 3-2.2 4.9-.2 2 .1 4 .8 5.9.7 1.8 1.3 3.6 2.2 5.3.3.5.5 1 1 1.4.1.4.4.6.6.8.2.2.4.5.2.7-.2.4-.7.5-1.1.5-.4 0-.5-.2-.7-.5-.1-.4-.1-.9-.4-1.2" fill="#461910"/></svg>
